<svg width="30" height="30" viewBox="0 0 30 30" fill="none" xmlns="http://www.w3.org/2000/svg">
<mask id="path-1-inside-1_1_414" fill="white">
<path d="M26.4698 11.1769C26.4454 13.9678 25.7259 16.2416 24.2391 18.2465C21.4217 22.0445 18.592 25.8328 15.7502 29.6115C15.6656 29.732 15.5532 29.8302 15.4224 29.8979C15.2917 29.9655 15.1465 30.0005 14.9993 30C14.8521 29.9994 14.7072 29.9633 14.5769 29.8947C14.4467 29.8261 14.335 29.727 14.2513 29.6059C11.4154 25.8191 8.5692 22.0435 5.75862 18.2418C0.765155 11.4898 4.60816 1.75302 12.8656 0.200642C14.3683 -0.0842435 15.9128 -0.0655819 17.4081 0.255528C18.9034 0.576639 20.3194 1.19371 21.5726 2.07039C22.8258 2.94708 23.891 4.06566 24.7053 5.36027C25.5196 6.65488 26.0667 8.09934 26.3143 9.6086C26.4154 10.2222 26.4379 10.8481 26.4698 11.1769ZM15.0185 15.27C15.7707 15.2632 16.5039 15.0337 17.1257 14.6104C17.7475 14.1872 18.2299 13.5892 18.5122 12.892C18.7944 12.1948 18.8637 11.4296 18.7115 10.693C18.5592 9.95646 18.1921 9.28151 17.6565 8.75339C17.1209 8.22526 16.4409 7.86765 15.7023 7.72569C14.9636 7.58372 14.1995 7.66378 13.5063 7.95574C12.8131 8.2477 12.222 8.73848 11.8075 9.36613C11.393 9.99379 11.1737 10.7302 11.1774 11.4823C11.1871 12.4932 11.5965 13.4591 12.3163 14.1688C13.0361 14.8786 14.0077 15.2745 15.0185 15.27Z"/>
</mask>
<path d="M26.4698 11.1769L28.4697 11.1944L28.4706 11.089L28.4605 10.9841L26.4698 11.1769ZM24.2391 18.2465L25.8454 19.438L25.8456 19.4378L24.2391 18.2465ZM15.7502 29.6115L14.1518 28.4094L14.1322 28.4354L14.1135 28.4621L15.7502 29.6115ZM14.2513 29.6059L15.8966 28.4688L15.8749 28.4375L15.8521 28.407L14.2513 29.6059ZM5.75862 18.2418L7.36686 17.0528L7.36664 17.0525L5.75862 18.2418ZM12.8656 0.200642L13.2352 2.16621L13.2382 2.16564L12.8656 0.200642ZM26.3143 9.6086L24.3406 9.93234L24.3409 9.93397L26.3143 9.6086ZM11.1774 11.4823L9.17742 11.4921L9.17751 11.5014L11.1774 11.4823ZM24.4699 11.1594C24.4488 13.5779 23.8389 15.4286 22.6327 17.0551L25.8456 19.4378C27.6129 17.0546 28.4421 14.3577 28.4697 11.1944L24.4699 11.1594ZM22.6328 17.0549C19.818 20.8494 16.991 24.6342 14.1518 28.4094L17.3486 30.8136C20.1931 27.0314 23.0253 23.2396 25.8454 19.438L22.6328 17.0549ZM14.1135 28.4621C14.2141 28.3188 14.3479 28.202 14.5034 28.1215L16.3414 31.6742C16.7584 31.4585 17.1171 31.1451 17.387 30.7609L14.1135 28.4621ZM14.5034 28.1215C14.659 28.041 14.8317 27.9993 15.0068 28L14.9918 32C15.4613 32.0017 15.9243 31.89 16.3414 31.6742L14.5034 28.1215ZM15.0068 28C15.1819 28.0007 15.3542 28.0436 15.5092 28.1253L13.6447 31.6641C14.0601 31.883 14.5222 31.9982 14.9918 32L15.0068 28ZM15.5092 28.1253C15.6641 28.2069 15.797 28.3248 15.8966 28.4688L12.6059 30.743C12.8729 31.1292 13.2292 31.4453 13.6447 31.6641L15.5092 28.1253ZM15.8521 28.407C13.0112 24.6135 10.1725 20.848 7.36686 17.0528L4.15038 19.4307C6.96586 23.2391 9.81959 27.0247 12.6504 30.8047L15.8521 28.407ZM7.36664 17.0525C3.25483 11.4927 6.42103 3.44724 13.2352 2.16621L12.4961 -1.76493C2.79528 0.0587995 -1.72452 11.4869 4.1506 19.431L7.36664 17.0525ZM13.2382 2.16564C14.4787 1.93045 15.7537 1.94586 16.9882 2.21095L17.828 -1.69989C16.0718 -2.07702 14.2579 -2.09894 12.4931 -1.76435L13.2382 2.16564ZM16.9882 2.21095C18.2227 2.47604 19.3916 2.98546 20.4262 3.7092L22.7191 0.431581C21.2472 -0.598047 19.5842 -1.32276 17.828 -1.69989L16.9882 2.21095ZM20.4262 3.7092C21.4608 4.43295 22.3401 5.35639 23.0124 6.42515L26.3982 4.29539C25.4419 2.77493 24.1909 1.46121 22.7191 0.431581L20.4262 3.7092ZM23.0124 6.42515C23.6846 7.49391 24.1363 8.68638 24.3406 9.93234L28.2879 9.28485C27.9971 7.5123 27.3546 5.81585 26.3982 4.29539L23.0124 6.42515ZM24.3409 9.93397C24.3786 10.1624 24.4042 10.4103 24.4246 10.6613C24.4347 10.7864 24.4429 10.9034 24.4513 11.0217C24.4592 11.1314 24.4683 11.2579 24.4791 11.3697L28.4605 10.9841C28.4462 10.8365 28.4017 9.97524 28.2876 9.28322L24.3409 9.93397ZM15.0368 17.27C16.1841 17.2595 17.3026 16.9094 18.2511 16.2638L16.0003 12.9571C15.7052 13.1579 15.3573 13.2669 15.0003 13.2701L15.0368 17.27ZM18.2511 16.2638C19.1996 15.6181 19.9355 14.706 20.366 13.6425L16.6583 12.1416C16.5244 12.4724 16.2954 12.7562 16.0003 12.9571L18.2511 16.2638ZM20.366 13.6425C20.7966 12.5789 20.9023 11.4117 20.67 10.2881L16.7529 11.098C16.8252 11.4475 16.7922 11.8107 16.6583 12.1416L20.366 13.6425ZM20.67 10.2881C20.4377 9.16451 19.8778 8.13492 19.0608 7.32931L16.2522 10.1775C16.5064 10.4281 16.6806 10.7484 16.7529 11.098L20.67 10.2881ZM19.0608 7.32931C18.2438 6.5237 17.2065 5.97819 16.0797 5.76163L15.3248 9.68974C15.6753 9.75711 15.9981 9.92683 16.2522 10.1775L19.0608 7.32931ZM16.0797 5.76163C14.953 5.54508 13.7874 5.66719 12.73 6.11256L14.2826 9.79892C14.6116 9.66036 14.9742 9.62237 15.3248 9.68974L16.0797 5.76163ZM12.73 6.11256C11.6726 6.55792 10.7708 7.30658 10.1386 8.26401L13.4764 10.4683C13.6731 10.1704 13.9537 9.93748 14.2826 9.79892L12.73 6.11256ZM10.1386 8.26401C9.50629 9.22144 9.17184 10.3447 9.17744 11.4921L13.1774 11.4726C13.1757 11.1156 13.2797 10.7661 13.4764 10.4683L10.1386 8.26401ZM9.17751 11.5014C9.1922 13.0409 9.81583 14.5119 10.9121 15.5929L13.7206 12.7448C13.3773 12.4062 13.1819 11.9454 13.1773 11.4632L9.17751 11.5014ZM10.9121 15.5929C12.0083 16.6739 13.4879 17.2769 15.0275 17.27L15.0096 13.2701C14.5274 13.2722 14.064 13.0833 13.7206 12.7448L10.9121 15.5929Z" fill="#885A42" mask="url(#path-1-inside-1_1_414)"/>
</svg>
